<svg width="130" height="32" viewBox="0 0 130 32" fill="none" xmlns="http://www.w3.org/2000/svg">
<path d="M15 32V30.4H18.2V28.8H19.8V27.2H21.4V19.2H19.8V16H16.6V14.4H13.4V12.8H8.6V11.2H5.4V6.4H7V4.8H15V6.4H19.8V3.2H18.2V1.6H16.6V-2.26498e-06H5.4V1.6H3.8V3.2H2.2V4.8H0.6V12.8H2.2V14.4H3.8V16H8.6V17.6H13.4V19.2H15V20.8H16.6V25.6H15V27.2H7V25.6H5.4V24H0.6V27.2H2.2V28.8H3.8V30.4H7V32H15ZM15 3.2H7V1.6H15V3.2ZM3.8 6.4V11.2H2.2V6.4H3.8ZM18.2 25.6V20.8H19.8V25.6H18.2ZM8.6 30.4V28.8H13.4V30.4H8.6ZM11.8 16H10.2V14.4H11.8V16ZM7 14.4H5.4V12.8H7V14.4ZM18.2 19.2H16.6V17.6H18.2V19.2ZM31.291 32V12.8H37.691V8H31.291V1.6H26.491V8H23.291V12.8H26.491V32H31.291ZM28.091 30.4V11.2H24.891V9.6H28.091V3.2H29.691V9.6H36.091V11.2H29.691V30.4H28.091ZM45.8066 27.2V25.6H44.2066V14.4H45.8066V12.8H52.2066V14.4H53.8066V16H55.4066V24H53.8066V25.6H52.2066V27.2H45.8066ZM52.2066 32V30.4H53.8066V28.8H55.4066V32H60.2066V8H55.4066V11.2H53.8066V9.6H52.2066V8H45.8066V9.6H42.6066V11.2H41.0066V14.4H39.4066V25.6H41.0066V28.8H42.6066V30.4H45.8066V32H52.2066ZM55.4066 27.2V25.6H57.0066V14.4H55.4066V12.8H57.0066V9.6H58.6066V30.4H57.0066V27.2H55.4066ZM42.6066 16V24H41.0066V16H42.6066ZM47.4066 11.2V9.6H50.6066V11.2H47.4066ZM47.4066 30.4V28.8H50.6066V30.4H47.4066ZM77.6461 32V30.4H80.8461V28.8H82.4461V24H79.2461V25.6H77.6461V27.2H71.2461V25.6H69.6461V14.4H71.2461V12.8H77.6461V14.4H79.2461V16H82.4461V11.2H80.8461V9.6H77.6461V8H71.2461V9.6H68.0461V11.2H66.4461V14.4H64.8461V25.6H66.4461V28.8H68.0461V30.4H71.2461V32H77.6461ZM68.0461 16V24H66.4461V16H68.0461ZM72.8461 30.4V28.8H76.0461V30.4H72.8461ZM76.0461 11.2H72.8461V9.6H76.0461V11.2ZM92.4664 32V22.4H94.0664V24H95.6664V25.6H97.2664V27.2H98.8664V28.8H100.466V30.4H102.066V32H108.466V30.4H106.866V28.8H105.266V27.2H103.666V25.6H102.066V24H100.466V22.4H98.8664V20.8H97.2664V19.2H98.8664V17.6H100.466V16H102.066V14.4H103.666V12.8H105.266V11.2H106.866V9.6H108.466V8H102.066V9.6H100.466V11.2H98.8664V12.8H97.2664V14.4H95.6664V16H94.0664V17.6H92.4664V-2.26498e-06H87.6664V32H92.4664ZM89.2664 30.4V1.6H90.8664V19.2H95.6664V20.8H90.8664V30.4H89.2664ZM126.091 32V30.4H127.691V28.8H129.291V22.4H127.691V20.8H126.091V19.2H124.491V17.6H121.291V16H119.691V14.4H118.091V12.8H119.691V11.2H122.891V12.8H124.491V14.4H127.691V9.6H126.091V8H116.491V9.6H114.891V11.2H113.291V16H114.891V17.6H116.491V19.2H118.091V20.8H121.291V22.4H122.891V24H124.491V27.2H122.891V28.8H119.691V27.2H118.091V25.6H116.491V24H114.891V25.6H113.291V28.8H114.891V30.4H116.491V32H126.091ZM126.091 27.2V24H127.691V27.2H126.091ZM116.491 12.8V14.4H114.891V12.8H116.491Z" fill="#414141"/>
</svg>
